<?xml version="1.0" encoding="utf-8" standalone="no"?>
<!DOCTYPE svg PUBLIC "-//W3C//DTD SVG 1.1//EN"
  "http://www.w3.org/Graphics/SVG/1.1/DTD/svg11.dtd">
<svg xmlns:xlink="http://www.w3.org/1999/xlink" width="477.6pt" height="146.31pt" viewBox="0 0 477.6 146.31" xmlns="http://www.w3.org/2000/svg" version="1.1">
 <metadata>
  <rdf:RDF xmlns:dc="http://purl.org/dc/elements/1.1/" xmlns:cc="http://creativecommons.org/ns#" xmlns:rdf="http://www.w3.org/1999/02/22-rdf-syntax-ns#">
   <cc:Work>
    <dc:type rdf:resource="http://purl.org/dc/dcmitype/StillImage"/>
    <dc:date>2026-06-22T16:21:32.127180</dc:date>
    <dc:format>image/svg+xml</dc:format>
    <dc:creator>
     <cc:Agent>
      <dc:title>Matplotlib v3.10.9, https://matplotlib.org/</dc:title>
     </cc:Agent>
    </dc:creator>
   </cc:Work>
  </rdf:RDF>
 </metadata>
 <defs>
  <style type="text/css">*{stroke-linejoin: round; stroke-linecap: butt}</style>
 </defs>
 <g id="figure_1">
  <g id="patch_1">
   <path d="M 0 146.31 
L 477.6 146.31 
L 477.6 0 
L 0 0 
z
" style="fill: #ffffff"/>
  </g>
  <g id="axes_1">
   <g id="patch_2">
    <path d="M 21.096 104.89855 
L 74.364 104.89855 
Q 77.1432 104.89855 77.1432 101.233037 
L 77.1432 53.581375 
Q 77.1432 49.915862 74.364 49.915862 
L 21.096 49.915862 
Q 18.3168 49.915862 18.3168 53.581375 
L 18.3168 101.233037 
Q 18.3168 104.89855 21.096 104.89855 
z
" clip-path="url(#pfe223702cf)" style="fill: #d8d8d8; stroke: #cccccc; stroke-width: 0.8; stroke-linejoin: miter"/>
   </g>
   <g id="patch_3">
    <path d="M 90.576 104.89855 
L 143.844 104.89855 
Q 146.6232 104.89855 146.6232 101.233037 
L 146.6232 53.581375 
Q 146.6232 49.915862 143.844 49.915862 
L 90.576 49.915862 
Q 87.7968 49.915862 87.7968 53.581375 
L 87.7968 101.233037 
Q 87.7968 104.89855 90.576 104.89855 
z
" clip-path="url(#pfe223702cf)" style="fill: #b4c0e4; stroke: #cccccc; stroke-width: 0.8; stroke-linejoin: miter"/>
   </g>
   <g id="patch_4">
    <path d="M 160.056 104.89855 
L 213.324 104.89855 
Q 216.1032 104.89855 216.1032 101.233037 
L 216.1032 53.581375 
Q 216.1032 49.915862 213.324 49.915862 
L 160.056 49.915862 
Q 157.2768 49.915862 157.2768 53.581375 
L 157.2768 101.233037 
Q 157.2768 104.89855 160.056 104.89855 
z
" clip-path="url(#pfe223702cf)" style="fill: #7884b4; stroke: #cccccc; stroke-width: 0.8; stroke-linejoin: miter"/>
   </g>
   <g id="patch_5">
    <path d="M 229.536 104.89855 
L 282.804 104.89855 
Q 285.5832 104.89855 285.5832 101.233037 
L 285.5832 53.581375 
Q 285.5832 49.915862 282.804 49.915862 
L 229.536 49.915862 
Q 226.7568 49.915862 226.7568 53.581375 
L 226.7568 101.233037 
Q 226.7568 104.89855 229.536 104.89855 
z
" clip-path="url(#pfe223702cf)" style="fill: #c06080; stroke: #cccccc; stroke-width: 0.8; stroke-linejoin: miter"/>
   </g>
   <g id="patch_6">
    <path d="M 299.016 104.89855 
L 352.284 104.89855 
Q 355.0632 104.89855 355.0632 101.233037 
L 355.0632 53.581375 
Q 355.0632 49.915862 352.284 49.915862 
L 299.016 49.915862 
Q 296.2368 49.915862 296.2368 53.581375 
L 296.2368 101.233037 
Q 296.2368 104.89855 299.016 104.89855 
z
" clip-path="url(#pfe223702cf)" style="fill: #b4c0e4; stroke: #cccccc; stroke-width: 0.8; stroke-linejoin: miter"/>
   </g>
   <g id="patch_7">
    <path d="M 368.496 104.89855 
L 421.764 104.89855 
Q 424.5432 104.89855 424.5432 101.233037 
L 424.5432 53.581375 
Q 424.5432 49.915862 421.764 49.915862 
L 368.496 49.915862 
Q 365.7168 49.915862 365.7168 53.581375 
L 365.7168 101.233037 
Q 365.7168 104.89855 368.496 104.89855 
z
" clip-path="url(#pfe223702cf)" style="fill: #52b788; stroke: #cccccc; stroke-width: 0.8; stroke-linejoin: miter"/>
   </g>
   <g id="text_1">
    <text style="font-weight: 700; font-size: 7px; font-family: 'Arial', 'Helvetica', 'DejaVu Sans', sans-serif; fill: #888888" transform="translate(39.179063 75.148968)">Input</text>
    <text style="font-weight: 700; font-size: 7px; font-family: 'Arial', 'Helvetica', 'DejaVu Sans', sans-serif; fill: #888888" transform="translate(35.735938 83.294507)">Tokens</text>
   </g>
   <g id="text_2">
    <text style="font-weight: 700; font-size: 7px; font-family: 'Arial', 'Helvetica', 'DejaVu Sans', sans-serif; fill: #484878" transform="translate(98.155781 75.057093)">Embedding</text>
    <text style="font-weight: 700; font-size: 7px; font-family: 'Arial', 'Helvetica', 'DejaVu Sans', sans-serif; fill: #484878" transform="translate(107.871016 83.294507)">Layer</text>
   </g>
   <g id="text_3">
    <text style="font-weight: 700; font-size: 7px; font-family: 'Arial', 'Helvetica', 'DejaVu Sans', sans-serif; fill: #ffffff" transform="translate(171.198672 75.045445)">LTC Core</text>
    <text style="font-weight: 700; font-size: 7px; font-family: 'Arial', 'Helvetica', 'DejaVu Sans', sans-serif; fill: #ffffff" transform="translate(172.489844 83.306155)">(τ-gates)</text>
   </g>
   <g id="text_4">
    <text style="font-weight: 700; font-size: 7px; font-family: 'Arial', 'Helvetica', 'DejaVu Sans', sans-serif; fill: #ffffff" transform="translate(236.728047 75.191624)">Liquid Core</text>
    <text style="font-weight: 700; font-size: 7px; font-family: 'Arial', 'Helvetica', 'DejaVu Sans', sans-serif; fill: #ffffff" transform="translate(241.976406 83.337163)">Modules</text>
   </g>
   <g id="text_5">
    <text style="font-weight: 700; font-size: 7px; font-family: 'Arial', 'Helvetica', 'DejaVu Sans', sans-serif; fill: #484878" transform="translate(314.183672 75.191624)">Output</text>
    <text style="font-weight: 700; font-size: 7px; font-family: 'Arial', 'Helvetica', 'DejaVu Sans', sans-serif; fill: #484878" transform="translate(317.091953 83.337163)">Head</text>
   </g>
   <g id="text_6">
    <text style="font-weight: 700; font-size: 7px; font-family: 'Arial', 'Helvetica', 'DejaVu Sans', sans-serif; fill: #ffffff" transform="translate(378.995 75.10303)">Continual</text>
    <text style="font-weight: 700; font-size: 7px; font-family: 'Arial', 'Helvetica', 'DejaVu Sans', sans-serif; fill: #ffffff" transform="translate(380.351797 83.24857)">Learning</text>
   </g>
   <g id="patch_8">
    <path d="M 76.362794 77.407206 
Q 82.468296 77.407206 87.679371 77.407206 
" style="fill: none; stroke: #aaaaaa; stroke-width: 0.8; stroke-linecap: round"/>
    <path d="M 84.879371 76.007206 
L 87.679371 77.407206 
L 84.879371 78.807206 
z
" style="fill: #aaaaaa; stroke: #aaaaaa; stroke-width: 0.8; stroke-linecap: round"/>
   </g>
   <g id="patch_9">
    <path d="M 145.842794 77.407206 
Q 151.948296 77.407206 157.159371 77.407206 
" style="fill: none; stroke: #aaaaaa; stroke-width: 0.8; stroke-linecap: round"/>
    <path d="M 154.359371 76.007206 
L 157.159371 77.407206 
L 154.359371 78.807206 
z
" style="fill: #aaaaaa; stroke: #aaaaaa; stroke-width: 0.8; stroke-linecap: round"/>
   </g>
   <g id="patch_10">
    <path d="M 215.322794 77.407206 
Q 221.428296 77.407206 226.639371 77.407206 
" style="fill: none; stroke: #aaaaaa; stroke-width: 0.8; stroke-linecap: round"/>
    <path d="M 223.839371 76.007206 
L 226.639371 77.407206 
L 223.839371 78.807206 
z
" style="fill: #aaaaaa; stroke: #aaaaaa; stroke-width: 0.8; stroke-linecap: round"/>
   </g>
   <g id="patch_11">
    <path d="M 284.802794 77.407206 
Q 290.908296 77.407206 296.119371 77.407206 
" style="fill: none; stroke: #aaaaaa; stroke-width: 0.8; stroke-linecap: round"/>
    <path d="M 293.319371 76.007206 
L 296.119371 77.407206 
L 293.319371 78.807206 
z
" style="fill: #aaaaaa; stroke: #aaaaaa; stroke-width: 0.8; stroke-linecap: round"/>
   </g>
   <g id="patch_12">
    <path d="M 354.282794 77.407206 
Q 360.388296 77.407206 365.599371 77.407206 
" style="fill: none; stroke: #aaaaaa; stroke-width: 0.8; stroke-linecap: round"/>
    <path d="M 362.799371 76.007206 
L 365.599371 77.407206 
L 362.799371 78.807206 
z
" style="fill: #aaaaaa; stroke: #aaaaaa; stroke-width: 0.8; stroke-linecap: round"/>
   </g>
   <g id="text_7">
    <text style="font-style: italic; font-size: 5.5px; font-family: 'Arial', 'Helvetica', 'DejaVu Sans', sans-serif; text-anchor: middle; fill: #8b3050" x="242.7372" y="127.020337" transform="rotate(-0 242.7372 127.020337)">GWT-B</text>
   </g>
   <g id="text_8">
    <text style="font-style: italic; font-size: 5.5px; font-family: 'Arial', 'Helvetica', 'DejaVu Sans', sans-serif; fill: #8b3050" transform="translate(262.421863 121.203056)">World</text>
    <text style="font-style: italic; font-size: 5.5px; font-family: 'Arial', 'Helvetica', 'DejaVu Sans', sans-serif; fill: #8b3050" transform="translate(262.113347 127.020337)">Model</text>
   </g>
   <g id="text_9">
    <text style="font-style: italic; font-size: 5.5px; font-family: 'Arial', 'Helvetica', 'DejaVu Sans', sans-serif; text-anchor: middle; fill: #8b3050" x="242.7372" y="134.962281" transform="rotate(-0 242.7372 134.962281)">Hebbian</text>
   </g>
   <g id="text_10">
    <text style="font-style: italic; font-size: 5.5px; font-family: 'Arial', 'Helvetica', 'DejaVu Sans', sans-serif; fill: #8b3050" transform="translate(263.0303 129.016437)">Pred.</text>
    <text style="font-style: italic; font-size: 5.5px; font-family: 'Arial', 'Helvetica', 'DejaVu Sans', sans-serif; fill: #8b3050" transform="translate(260.888738 134.914156)">Coding</text>
   </g>
   <g id="text_11">
    <text style="font-weight: 700; font-size: 8px; font-family: 'Arial', 'Helvetica', 'DejaVu Sans', sans-serif; text-anchor: start" x="16.464" y="12.92625" transform="rotate(-0 16.464 12.92625)">MT-LNN architecture pipeline</text>
   </g>
  </g>
 </g>
 <defs>
  <clipPath id="pfe223702cf">
   <rect x="7.2" y="16.92625" width="463.2" height="122.18375"/>
  </clipPath>
 </defs>
</svg>
